<mxfile host="app.diagrams.net" modified="2024-05-07T05:04:42.113Z" agent="Mozilla/5.0 (Macintosh; Intel Mac OS X 10_15_7) AppleWebKit/537.36 (KHTML, like Gecko) Chrome/124.0.0.0 Safari/537.36" version="24.2.8" etag="zdQ3Jl-XAzcp1a-ZcIDi" type="github">
  <diagram name="Page-1" id="-F1Xs_UJ8bAgcjwsxZP3">
    <mxGraphModel>
      <root>
        <mxCell id="0" />
        <mxCell id="1" parent="0" />
      </root>
    </mxGraphModel>
  </diagram>
</mxfile>
